<svg width="35" height="35" viewBox="0 0 35 35" fill="none" xmlns="http://www.w3.org/2000/svg">
<path d="M5.83325 14.5833L5.12614 15.2904L4.41904 14.5833L5.12614 13.8762L5.83325 14.5833ZM30.1666 26.25C30.1666 26.8023 29.7189 27.25 29.1666 27.25C28.6143 27.25 28.1666 26.8023 28.1666 26.25L30.1666 26.25ZM12.4178 22.5821L5.12614 15.2904L6.54036 13.8762L13.832 21.1679L12.4178 22.5821ZM5.12614 13.8762L12.4178 6.58456L13.832 7.99877L6.54036 15.2904L5.12614 13.8762ZM5.83325 13.5833L23.1666 13.5833L23.1666 15.5833L5.83325 15.5833L5.83325 13.5833ZM30.1666 20.5833L30.1666 26.25L28.1666 26.25L28.1666 20.5833L30.1666 20.5833ZM23.1666 13.5833C27.0326 13.5833 30.1666 16.7173 30.1666 20.5833L28.1666 20.5833C28.1666 17.8219 25.928 15.5833 23.1666 15.5833L23.1666 13.5833Z" fill="#1463F3"/>
</svg>
