<svg width="35" height="32" viewBox="0 0 35 32" fill="none" xmlns="http://www.w3.org/2000/svg">
<path d="M9.30669 12.5532C9.32748 12.3817 9.33787 12.296 9.34832 12.2215C9.89474 8.32803 13.1893 5.4087 17.1202 5.33476C17.1955 5.33334 17.2818 5.33334 17.4546 5.33334V5.33334C17.6273 5.33334 17.7137 5.33334 17.7889 5.33476C21.7198 5.4087 25.0144 8.32803 25.5608 12.2215C25.5712 12.296 25.5816 12.3817 25.6024 12.5532L25.8784 14.83C25.9565 15.4746 25.9956 15.7968 26.0596 16.1113C26.2187 16.8929 26.4938 17.6464 26.8758 18.3466C27.0295 18.6283 27.2073 18.9 27.5629 19.4433L28.5194 20.9047C29.4124 22.269 29.8589 22.9512 29.5754 23.4756C29.2919 24 28.4766 24 26.846 24H8.06308C6.43249 24 5.6172 24 5.33369 23.4756C5.05017 22.9512 5.49667 22.269 6.38967 20.9047L7.34625 19.4433C7.70185 18.9 7.87965 18.6283 8.03334 18.3466C8.41531 17.6464 8.69041 16.8929 8.84951 16.1113C8.91353 15.7968 8.95259 15.4746 9.03072 14.83L9.30669 12.5532Z" stroke="#1D2023"/>
<path d="M13.2396 24.5412C13.4882 25.5334 14.036 26.4103 14.7981 27.0356C15.5602 27.661 16.494 28 17.4545 28C18.4151 28 19.3489 27.661 20.111 27.0356C20.873 26.4103 21.4209 25.5334 21.6695 24.5412" stroke="#222222" stroke-linecap="round"/>
</svg>
