<svg width="24" height="24" viewBox="0 0 24 24" fill="none" xmlns="http://www.w3.org/2000/svg">
<path d="M17.7064 13.7071L20.3545 16.3552C20.7106 16.7113 20.7106 17.2887 20.3545 17.6448C18.4293 19.57 15.3814 19.7866 13.2033 18.153L11.6278 16.9714C9.88431 15.6638 8.33549 14.115 7.02784 12.3714L5.84628 10.796C4.21267 8.61788 4.42928 5.56999 6.3545 3.64477C6.71059 3.28867 7.28794 3.28867 7.64404 3.64477L10.2922 6.29289C10.6827 6.68342 10.6827 7.31658 10.2922 7.70711L9.27101 8.72825C9.10873 8.89054 9.0685 9.13846 9.17113 9.34373C10.3578 11.7171 12.2822 13.6415 14.6555 14.8281C14.8608 14.9308 15.1087 14.8905 15.271 14.7283L16.2922 13.7071C16.6827 13.3166 17.3158 13.3166 17.7064 13.7071Z" stroke="#1D2023" stroke-opacity="0.9"/>
</svg>
