<svg width="24" height="24" viewBox="0 0 24 24" fill="none" xmlns="http://www.w3.org/2000/svg">
<circle cx="12.0007" cy="8" r="4" stroke="#1D2023" stroke-opacity="0.9" stroke-linecap="round"/>
<path fill-rule="evenodd" clip-rule="evenodd" d="M15.2766 16C13.898 15.5613 12.3903 15.4073 10.9074 15.5538C9.26689 15.7157 7.71545 16.2397 6.45121 17.0712C5.18686 17.9028 4.25448 19.0137 3.80248 20.2789C3.70957 20.5389 3.84507 20.825 4.10511 20.9179C4.36515 21.0108 4.65128 20.8754 4.74418 20.6153C5.11122 19.588 5.88588 18.64 7.00073 17.9067C8.11569 17.1734 9.50873 16.6967 11.0057 16.5489C11.5555 16.4946 12.1083 16.4858 12.6544 16.521C13.0097 16.1974 13.4822 16 14.0007 16L15.2766 16Z" fill="#1D2023" fill-opacity="0.9"/>
<path d="M18.0007 14L18.0007 22" stroke="#1D2023" stroke-opacity="0.9" stroke-linecap="round"/>
<path d="M22.0007 18L14.0007 18" stroke="#1D2023" stroke-opacity="0.9" stroke-linecap="round"/>
</svg>
