<svg width="180" height="180" viewBox="0 0 180 180" fill="none" xmlns="http://www.w3.org/2000/svg">
<rect width="180" height="180" fill="white"/>
<circle cx="90" cy="90" r="88" fill="#1463F3" stroke="white" stroke-width="4"/>
<path d="M175.5 112C147.542 112 131.868 112 103.91 112L52 170.5" stroke="#1463F3" stroke-width="3"/>
<path d="M151 155H107" stroke="white" stroke-width="4"/>
<path d="M168 132.03L126 131.97" stroke="white" stroke-width="4"/>
<path d="M30 25H74" stroke="white" stroke-width="4"/>
<path d="M13 46H54.5" stroke="white" stroke-width="4"/>
<circle cx="62" cy="46" r="7" stroke="white" stroke-width="4"/>
<circle cx="81" cy="25" r="7" stroke="white" stroke-width="4"/>
<circle cx="5" cy="5" r="7" transform="matrix(-1 0 0 1 105 150)" stroke="white" stroke-width="4"/>
<path d="M72 112V109H70.942L70.118 109.664L72 112ZM57.4806 119.844L25.1343 127.512L46.8657 154.488L61.2446 124.516L57.4806 119.844ZM70.118 109.664L55.1444 121.726L58.9083 126.398L73.882 114.336L70.118 109.664ZM72 115H88V109H72V115ZM88 115H104V109H88V115Z" fill="white"/>
<path d="M115 69V72H116.154L117.011 71.2263L115 69ZM148.996 41.1523C149.08 39.4976 147.807 38.088 146.152 38.0039L119.187 36.6328C117.532 36.5487 116.123 37.8219 116.039 39.4766C115.954 41.1313 117.228 42.5409 118.882 42.6251L142.851 43.8438L141.633 67.8128C141.549 69.4675 142.822 70.8772 144.476 70.9613C146.131 71.0454 147.541 69.7722 147.625 68.1175L148.996 41.1523ZM117.011 71.2263L148.011 43.2263L143.989 38.7737L112.989 66.7737L117.011 71.2263ZM115 66H75.5V72H115V66Z" fill="white"/>
<path d="M13.296 101V80.224H16.796V101H13.296ZM21.3898 101V86.048H24.8898V101H21.3898ZM23.1538 83.584C22.5004 83.584 21.9591 83.3787 21.5298 82.968C21.1191 82.5573 20.9138 82.0627 20.9138 81.484C20.9138 80.8867 21.1191 80.392 21.5298 80C21.9591 79.5893 22.5004 79.384 23.1538 79.384C23.8071 79.384 24.3391 79.58 24.7498 79.972C25.1791 80.3453 25.3938 80.8213 25.3938 81.4C25.3938 82.016 25.1884 82.5387 24.7778 82.968C24.3671 83.3787 23.8258 83.584 23.1538 83.584ZM37.9675 85.88C39.1622 85.88 40.2262 86.1133 41.1595 86.58C42.1115 87.0467 42.8582 87.7653 43.3995 88.736C43.9408 89.688 44.2115 90.92 44.2115 92.432V101H40.7115V92.88C40.7115 91.5547 40.3942 90.5653 39.7595 89.912C39.1435 89.2587 38.2755 88.932 37.1555 88.932C36.3342 88.932 35.6062 89.1 34.9715 89.436C34.3368 89.772 33.8422 90.276 33.4875 90.948C33.1515 91.6013 32.9835 92.432 32.9835 93.44V101H29.4835V86.048H32.8155V90.08L32.2275 88.848C32.7502 87.896 33.5062 87.168 34.4955 86.664C35.5035 86.1413 36.6608 85.88 37.9675 85.88ZM57.1355 85.88C58.3301 85.88 59.3941 86.1133 60.3275 86.58C61.2795 87.0467 62.0261 87.7653 62.5675 88.736C63.1088 89.688 63.3795 90.92 63.3795 92.432V101H59.8795V92.88C59.8795 91.5547 59.5621 90.5653 58.9275 89.912C58.3115 89.2587 57.4435 88.932 56.3235 88.932C55.5021 88.932 54.7741 89.1 54.1395 89.436C53.5048 89.772 53.0101 90.276 52.6555 90.948C52.3195 91.6013 52.1515 92.432 52.1515 93.44V101H48.6515V80.224H52.1515V90.08L51.3955 88.848C51.9181 87.896 52.6741 87.168 53.6635 86.664C54.6715 86.1413 55.8288 85.88 57.1355 85.88ZM70.6754 97.668L70.7594 93.272L78.5714 86.048H82.7714L76.1354 92.712L74.2874 94.252L70.6754 97.668ZM67.8194 101V80.224H71.3194V101H67.8194ZM79.1034 101L73.6434 94.252L75.8554 91.452L83.3594 101H79.1034ZM85.6202 101V86.048H89.1202V101H85.6202ZM87.3842 83.584C86.7309 83.584 86.1896 83.3787 85.7602 82.968C85.3496 82.5573 85.1442 82.0627 85.1442 81.484C85.1442 80.8867 85.3496 80.392 85.7602 80C86.1896 79.5893 86.7309 79.384 87.3842 79.384C88.0376 79.384 88.5696 79.58 88.9802 79.972C89.4096 80.3453 89.6242 80.8213 89.6242 81.4C89.6242 82.016 89.4189 82.5387 89.0082 82.968C88.5976 83.3787 88.0562 83.584 87.3842 83.584ZM100.742 101.196C99.0806 101.196 97.6246 100.869 96.374 100.216C95.142 99.544 94.1806 98.6293 93.49 97.472C92.818 96.3147 92.482 94.9987 92.482 93.524C92.482 92.0307 92.8086 90.7147 93.462 89.576C94.134 88.4187 95.0486 87.5133 96.206 86.86C97.382 86.2067 98.7166 85.88 100.21 85.88C101.666 85.88 102.963 86.1973 104.102 86.832C105.241 87.4667 106.137 88.3627 106.79 89.52C107.443 90.6773 107.77 92.04 107.77 93.608C107.77 93.7573 107.761 93.9253 107.742 94.112C107.742 94.2987 107.733 94.476 107.714 94.644H95.254V92.32H105.866L104.494 93.048C104.513 92.1893 104.335 91.4333 103.962 90.78C103.589 90.1267 103.075 89.6133 102.422 89.24C101.787 88.8667 101.05 88.68 100.21 88.68C99.3513 88.68 98.5953 88.8667 97.942 89.24C97.3073 89.6133 96.8033 90.136 96.43 90.808C96.0753 91.4613 95.898 92.236 95.898 93.132V93.692C95.898 94.588 96.1033 95.3813 96.514 96.072C96.9246 96.7627 97.5033 97.2947 98.25 97.668C98.9966 98.0413 99.8553 98.228 100.826 98.228C101.666 98.228 102.422 98.0973 103.094 97.836C103.766 97.5747 104.363 97.164 104.886 96.604L106.762 98.76C106.09 99.544 105.241 100.151 104.214 100.58C103.206 100.991 102.049 101.196 100.742 101.196ZM119.616 85.88C120.811 85.88 121.875 86.1133 122.808 86.58C123.76 87.0467 124.507 87.7653 125.048 88.736C125.589 89.688 125.86 90.92 125.86 92.432V101H122.36V92.88C122.36 91.5547 122.043 90.5653 121.408 89.912C120.792 89.2587 119.924 88.932 118.804 88.932C117.983 88.932 117.255 89.1 116.62 89.436C115.985 89.772 115.491 90.276 115.136 90.948C114.8 91.6013 114.632 92.432 114.632 93.44V101H111.132V86.048H114.464V90.08L113.876 88.848C114.399 87.896 115.155 87.168 116.144 86.664C117.152 86.1413 118.309 85.88 119.616 85.88ZM130.636 101V81.4H138.7C140.436 81.4 141.92 81.68 143.152 82.24C144.403 82.8 145.364 83.6027 146.036 84.648C146.708 85.6933 147.044 86.9347 147.044 88.372C147.044 89.8093 146.708 91.0507 146.036 92.096C145.364 93.1413 144.403 93.944 143.152 94.504C141.92 95.064 140.436 95.344 138.7 95.344H132.652L134.276 93.636V101H130.636ZM134.276 94.028L132.652 92.264H138.532C140.137 92.264 141.341 91.928 142.144 91.256C142.965 90.5653 143.376 89.604 143.376 88.372C143.376 87.1213 142.965 86.16 142.144 85.488C141.341 84.816 140.137 84.48 138.532 84.48H132.652L134.276 82.688V94.028ZM150.679 101V81.4H153.675L165.967 96.492H164.483V81.4H168.095V101H165.099L152.807 85.908H154.291V101H150.679Z" fill="white"/>
<path d="M175.5 112H104L53 170" stroke="white" stroke-width="6"/>
<path d="M3.5 69C31.4577 69 47.1325 69 75.0902 69L127 10.5" stroke="white" stroke-width="6"/>
<circle cx="5" cy="5" r="7" transform="matrix(-1 0 0 1 124 127)" stroke="white" stroke-width="4"/>
<path d="M54.3794 125.982L42.0868 148.93L28.7819 132.677L54.3794 125.982Z" fill="#1463F3"/>
</svg>
